<svg width="24" height="23" viewBox="0 0 24 23" fill="none" xmlns="http://www.w3.org/2000/svg">
<path d="M18.0896 6.80525C18.0896 3.36496 15.3022 0.577568 11.8619 0.577568C8.42163 0.577568 5.63424 3.36496 5.63424 6.80525C5.63424 8.88449 6.65378 10.7277 8.22074 11.8577C8.2107 11.8627 8.20316 11.8652 8.19814 11.8677C7.07565 12.3424 6.06868 13.0229 5.20232 13.8917C4.34098 14.7515 3.65523 15.7708 3.18335 16.8926C2.71907 17.9911 2.4685 19.1681 2.44507 20.3605C2.4444 20.3873 2.4491 20.414 2.4589 20.4389C2.46869 20.4639 2.48338 20.4866 2.5021 20.5058C2.52083 20.525 2.5432 20.5402 2.56791 20.5506C2.59261 20.5611 2.61915 20.5664 2.64596 20.5664H4.15015C4.25813 20.5664 4.34853 20.4785 4.35104 20.3705C4.40126 18.4319 5.17721 16.6164 6.55082 15.2402C7.96962 13.8164 9.85299 13.0329 11.8619 13.0329C15.3022 13.0329 18.0896 10.2455 18.0896 6.80525ZM11.8619 11.1244C9.47632 11.1244 7.54273 9.19085 7.54273 6.80525C7.54273 4.41964 9.47632 2.48605 11.8619 2.48605C14.2475 2.48605 16.1811 4.41964 16.1811 6.80525C16.1811 9.19085 14.2475 11.1244 11.8619 11.1244ZM14.4986 16.6741H21.1281C21.2386 16.6741 21.329 16.5837 21.329 16.4732V15.067C21.329 14.9565 21.2386 14.8661 21.1281 14.8661H16.6959L17.8812 13.3569C17.9085 13.3216 17.9235 13.2784 17.9239 13.2338C17.9239 13.1233 17.8335 13.0329 17.723 13.0329H15.8999C15.7768 13.0329 15.6613 13.0907 15.5835 13.1861L13.8633 15.3733C13.7528 15.514 13.6926 15.6897 13.6926 15.8705C13.6951 16.315 14.0542 16.6741 14.4986 16.6741ZM20.5254 18.2812H13.896C13.7855 18.2812 13.6951 18.3717 13.6951 18.4821V19.8884C13.6951 19.9989 13.7855 20.0893 13.896 20.0893H18.3282L17.1429 21.5985C17.1156 21.6337 17.1006 21.677 17.1002 21.7215C17.1002 21.832 17.1906 21.9224 17.3011 21.9224H19.1242C19.2472 21.9224 19.3628 21.8647 19.4406 21.7693L21.1608 19.582C21.2712 19.4414 21.3315 19.2656 21.3315 19.0848C21.329 18.6403 20.9699 18.2812 20.5254 18.2812Z" fill="#FF6B72"/>
</svg>
