<?xml version="1.0" encoding="UTF-8"?>
<svg width="167px" height="50px" viewBox="0 0 167 50" version="1.1" xmlns="http://www.w3.org/2000/svg" xmlns:xlink="http://www.w3.org/1999/xlink">
    <title>logo</title>
    <g id="Page-1" stroke="none" stroke-width="1" fill="none" fill-rule="evenodd">
        <g id="logo" fill="#F12E45" fill-rule="nonzero">
            <path d="M117.1,9.8 L108.3,9.8 C108.1,9.8 107.9,10 107.9,10.2 L107.9,15.3 C107.9,15.5 108.1,15.7 108.3,15.7 L117.1,15.7 C117.3,15.7 117.5,15.5 117.5,15.3 L117.5,10.2 C117.6,10 117.4,9.8 117.1,9.8 Z M117,17.4 L100,17.4 C99.8,17.4 99.5,17.6 99.4,17.8 L97.2,26.1 L97.1,26.5 L94.5,17.6 C94.4,17.4 94.2,17.2 93.9,17.2 L87.3,17.2 C87.1,17.2 86.8,17.4 86.7,17.6 L84.2,25.9 L84.1,26.3 L84,26.1 L83,22 L81.9,17.9 C81.8,17.7 81.6,17.5 81.3,17.5 L68,17.5 L68,10.3 C68,10.1 67.7,9.8 67.4,9.9 L59,12.5 C58.7,12.6 58.6,12.7 58.6,12.9 L58.6,17.4 L56.4,17.4 C56.2,17.4 56,17.6 56,17.8 L56,24.2 C56,24.4 56.2,24.6 56.4,24.6 L58.6,24.6 L58.6,32.4 C58.6,37.9 61.6,40.5 67.1,40.5 C69.4,40.5 71.6,40 73.1,39.2 L73.1,32.6 C73.1,32.3 72.8,32.2 72.6,32.2 C71.7,32.6 71,32.7 70.2,32.7 C68.7,32.7 67.9,32.1 67.9,30.4 L67.9,24.7 L72.7,24.7 C72.9,24.7 73.1,24.5 73.1,24.3 L73.1,18.9 L79.4,39.8 C79.5,40 79.7,40.2 80,40.2 L87,40.2 C87.2,40.2 87.5,40 87.6,39.8 L90.6,30.5 L92.1,35.3 L93.5,39.7 C93.6,39.9 93.8,40.1 94.1,40.1 L101.1,40.1 C101.3,40.1 101.6,39.9 101.7,39.7 L108.1,18.7 L108.1,39.7 C108.1,39.9 108.3,40.1 108.5,40.1 L117,40.1 C117.2,40.1 117.4,39.9 117.4,39.7 L117.4,17.9 C117.4,17.6 117.2,17.4 117,17.4 L117,17.4 Z M128.2,9.8 L119.7,9.8 C119.5,9.8 119.3,10 119.3,10.2 L119.3,39.7 C119.3,39.9 119.5,40.1 119.7,40.1 L128.2,40.1 C128.4,40.1 128.6,39.9 128.6,39.7 L128.6,10.2 C128.6,10 128.4,9.8 128.2,9.8 Z M139.5,9.8 L130.7,9.8 C130.5,9.8 130.3,10 130.3,10.2 L130.3,15.3 C130.3,15.5 130.5,15.7 130.7,15.7 L139.5,15.7 C139.7,15.7 139.9,15.5 139.9,15.3 L139.9,10.2 C140,10 139.8,9.8 139.5,9.8 Z M139.4,17.4 L130.9,17.4 C130.7,17.4 130.5,17.6 130.5,17.8 L130.5,39.7 C130.5,39.9 130.7,40.1 130.9,40.1 L139.4,40.1 C139.6,40.1 139.8,39.9 139.8,39.7 L139.8,17.9 C139.8,17.6 139.6,17.4 139.4,17.4 L139.4,17.4 Z M153.5,16.9 C146,16.9 140.7,22.4 140.7,28.8 L140.7,28.9 C140.7,35.3 146,40.7 153.4,40.7 C160.9,40.7 166.2,35.2 166.2,28.8 L166.2,28.7 C166.2,22.3 160.9,16.9 153.5,16.9 Z M157.1,28.8 C157.1,31 155.6,32.7 153.5,32.7 C151.4,32.7 149.8,30.9 149.8,28.7 L149.8,28.6 C149.8,26.4 151.3,24.7 153.4,24.7 C155.5,24.7 157.1,26.5 157.1,28.8 Z M25,0 C11.2,0 0,11.2 0,25 C0,38.8 11.2,50 25,50 C38.8,50 50,38.8 50,25 C50,11.2 38.8,0 25,0 Z M25,43.4 C14.8,43.4 6.6,35.2 6.6,25 C6.6,14.8 14.8,6.6 25,6.6 C35.2,6.6 43.4,14.8 43.4,25 C43.4,35.2 35.2,43.4 25,43.4 Z" id="Shape"></path>
            <circle id="Oval" cx="31.2" cy="18.8" r="5.2"></circle>
            <circle id="Oval" cx="31.2" cy="31.2" r="5.2"></circle>
            <circle id="Oval" cx="18.8" cy="31.2" r="5.2"></circle>
            <circle id="Oval" cx="18.8" cy="18.8" r="5.2"></circle>
        </g>
    </g>
</svg>